<?xml version="1.0" encoding="UTF-8"?>
<svg xmlns="http://www.w3.org/2000/svg" xmlns:xlink="http://www.w3.org/1999/xlink" width="50pt" height="50pt" viewBox="0 0 50 50" version="1.1">
<defs>
<linearGradient id="linear0" gradientUnits="userSpaceOnUse" x1="0" y1="0" x2="1" y2="0" gradientTransform="matrix(-31.01617,31.01617,-31.01617,-31.01617,34.084193,13.663228)">
<stop offset="0" style="stop-color:rgb(0%,0%,0%);stop-opacity:0.403922;"/>
<stop offset="1" style="stop-color:rgb(30.196078%,30.196078%,30.196078%);stop-opacity:0;"/>
</linearGradient>
</defs>
<g id="surface1">
<path style=" stroke:none;fill-rule:evenodd;fill:rgb(20.784314%,45.098039%,72.54902%);fill-opacity:1;" d="M 49.996094 25 C 49.996094 38.804688 38.804688 49.996094 25 49.996094 C 11.191406 49.996094 0 38.804688 0 25 C 0 11.191406 11.191406 0 25 0 C 38.804688 0 49.996094 11.191406 49.996094 25 Z M 49.996094 25 "/>
<path style=" stroke:none;fill-rule:evenodd;fill:url(#linear0);" d="M 0.382812 29.375 C 4.761719 25.265625 11.140625 19.285156 11.152344 19.265625 C 11.167969 19.238281 11.191406 19.210938 11.214844 19.1875 C 11.261719 19.140625 11.320312 19.105469 11.382812 19.089844 C 11.417969 19.078125 11.449219 19.078125 11.484375 19.074219 L 16.226562 19.074219 L 21.828125 14.871094 C 21.855469 14.855469 21.878906 14.835938 21.90625 14.824219 C 21.984375 14.792969 22.007812 14.800781 22.09375 14.796875 C 22.121094 14.804688 22.152344 14.8125 22.183594 14.816406 C 22.210938 14.832031 22.242188 14.84375 22.265625 14.859375 C 22.292969 14.878906 22.316406 14.898438 22.339844 14.921875 C 22.382812 14.96875 22.410156 15.023438 22.425781 15.085938 C 22.433594 15.117188 22.433594 15.148438 22.4375 15.179688 L 22.4375 23.886719 C 25.28125 21.046875 27.199219 19.132812 27.207031 19.125 C 27.285156 19.082031 27.3125 19.085938 27.398438 19.074219 C 27.429688 19.078125 27.464844 19.085938 27.496094 19.089844 C 27.585938 19.125 27.261719 19.285156 27.335938 19.34375 C 27.980469 18.699219 30.539062 16.175781 30.539062 16.175781 L 30.945312 16.511719 C 30.945312 16.511719 33.8125 13.777344 33.8125 13.777344 C 33.835938 13.753906 33.863281 13.730469 33.890625 13.714844 C 33.96875 13.671875 33.996094 13.675781 34.082031 13.664062 C 34.117188 13.667969 34.148438 13.671875 34.183594 13.675781 C 34.214844 13.6875 34.246094 13.699219 34.273438 13.714844 C 34.304688 13.730469 34.328125 13.753906 34.355469 13.777344 C 34.359375 13.78125 34.359375 13.78125 34.363281 13.785156 C 34.371094 13.789062 34.375 13.796875 34.382812 13.800781 C 34.394531 13.816406 34.40625 13.828125 34.417969 13.839844 C 34.480469 13.90625 34.542969 13.972656 34.605469 14.042969 C 34.714844 14.160156 34.820312 14.285156 34.925781 14.40625 C 35.039062 14.539062 35.148438 14.671875 35.257812 14.808594 C 35.421875 15.011719 35.582031 15.21875 35.738281 15.429688 C 35.945312 15.707031 36.140625 15.992188 36.332031 16.277344 C 36.734375 16.882812 37.101562 17.507812 37.433594 18.152344 C 38 19.25 38.457031 20.402344 38.777344 21.597656 C 38.820312 21.761719 38.863281 21.925781 38.902344 22.089844 C 39.066406 22.808594 39.183594 23.542969 39.238281 24.28125 C 39.261719 24.597656 39.277344 24.917969 39.277344 25.234375 C 39.28125 25.640625 39.265625 26.046875 39.230469 26.453125 C 39.1875 26.949219 39.117188 27.441406 39.019531 27.925781 C 38.925781 28.402344 38.804688 28.875 38.65625 29.339844 C 38.527344 29.753906 38.378906 30.160156 38.214844 30.558594 C 38.085938 30.867188 37.949219 31.167969 37.800781 31.464844 C 37.527344 32.019531 37.21875 32.554688 36.886719 33.070312 C 36.613281 33.496094 36.320312 33.910156 36.011719 34.308594 C 35.652344 34.777344 35.269531 35.230469 34.875 35.667969 C 34.710938 35.847656 34.542969 36.027344 34.375 36.199219 L 34.359375 36.21875 C 34.339844 36.230469 25.890625 44.679688 20.90625 49.660156 C 10.480469 47.941406 2.21875 39.761719 0.382812 29.375 Z M 0.382812 29.375 "/>
<path style=" stroke:none;fill-rule:evenodd;fill:rgb(100%,100%,100%);fill-opacity:1;" d="M 16.226562 19.074219 L 21.824219 14.871094 C 21.851562 14.855469 21.878906 14.839844 21.90625 14.824219 C 21.984375 14.792969 22.007812 14.800781 22.089844 14.796875 C 22.121094 14.804688 22.152344 14.8125 22.183594 14.816406 C 22.210938 14.832031 22.242188 14.84375 22.265625 14.859375 C 22.292969 14.878906 22.316406 14.898438 22.339844 14.921875 C 22.378906 14.96875 22.410156 15.023438 22.425781 15.085938 C 22.433594 15.117188 22.433594 15.148438 22.4375 15.179688 L 22.4375 34.820312 C 22.425781 34.902344 22.433594 34.925781 22.390625 35 C 22.378906 35.027344 22.359375 35.054688 22.339844 35.074219 C 22.296875 35.121094 22.242188 35.15625 22.183594 35.179688 C 22.152344 35.191406 22.121094 35.195312 22.089844 35.199219 C 22.058594 35.203125 22.027344 35.203125 21.996094 35.195312 C 21.914062 35.183594 21.898438 35.164062 21.824219 35.125 L 16.226562 30.921875 L 11.484375 30.921875 C 11.449219 30.917969 11.417969 30.917969 11.382812 30.910156 C 11.351562 30.898438 11.320312 30.886719 11.292969 30.871094 C 11.234375 30.835938 11.183594 30.789062 11.152344 30.730469 C 11.136719 30.703125 11.121094 30.671875 11.113281 30.636719 C 11.105469 30.605469 11.105469 30.570312 11.101562 30.539062 L 11.101562 19.457031 C 11.105469 19.425781 11.105469 19.390625 11.113281 19.359375 C 11.121094 19.328125 11.136719 19.296875 11.152344 19.265625 C 11.167969 19.238281 11.1875 19.210938 11.210938 19.1875 C 11.261719 19.140625 11.320312 19.105469 11.382812 19.089844 C 11.417969 19.078125 11.449219 19.078125 11.484375 19.074219 Z M 16.226562 19.074219 "/>
<path style="fill:none;stroke-width:54.86;stroke-linecap:round;stroke-linejoin:round;stroke:rgb(100%,100%,100%);stroke-opacity:1;stroke-miterlimit:1.5;" d="M 1965.563906 1395.847422 C 1965.563906 1395.847422 2358.4525 1785.933672 1965.563906 2190.872344 " transform="matrix(0.0139392,0,0,0.0139392,0,0)"/>
<path style="fill:none;stroke-width:59.78;stroke-linecap:round;stroke-linejoin:round;stroke:rgb(100%,100%,100%);stroke-opacity:1;stroke-miterlimit:1.5;" d="M 2211.889922 1184.270469 C 2211.889922 1184.270469 2813.833359 1782.010391 2211.889922 2402.169062 " transform="matrix(0.0139392,0,0,0.0139392,0,0)"/>
<path style="fill:none;stroke-width:54.86;stroke-linecap:round;stroke-linejoin:round;stroke:rgb(100%,100%,100%);stroke-opacity:1;stroke-miterlimit:1.5;" d="M 2445.325156 1007.722812 C 2445.325156 1007.722812 3221.854609 1778.647578 2445.325156 2578.996953 " transform="matrix(0.0139392,0,0,0.0139392,0,0)"/>
</g>
</svg>
